<svg xmlns="http://www.w3.org/2000/svg" xmlns:xlink="http://www.w3.org/1999/xlink" version="1.1" x="0px" y="0px" viewBox="0 0 100 125" style="enable-background:new 0 0 100 100;" xml:space="preserve"><style type="text/css">
	.st0{fill:#010101;}
</style><g><path class="st0" d="M42.7,48.7l17.6-17.6c0.8-0.8,0.8-2,0-2.8c-0.8-0.8-2-0.8-2.8,0L37,48.7l21.5,21.5c0.4,0.4,0.9,0.6,1.4,0.6   s1-0.2,1.4-0.6c0.8-0.8,0.8-2,0-2.8L42.7,48.7z"/><path class="st0" d="M49.9,2.2c-25.9,0-47,21.1-47,47c0,25.9,21.1,47,47,47c25.9,0,47-21.1,47-47C96.9,23.3,75.8,2.2,49.9,2.2z    M49.9,92.2c-23.7,0-43-19.3-43-43c0-23.7,19.3-43,43-43s43,19.3,43,43C92.9,72.9,73.6,92.2,49.9,92.2z"/></g></svg>