<svg xmlns="http://www.w3.org/2000/svg" xmlns:xlink="http://www.w3.org/1999/xlink" xmlns:sketch="http://www.bohemiancoding.com/sketch/ns" viewBox="0 0 100 125" version="1.1" x="0px" y="0px"><title>1 copy 48</title><desc>Created with Sketch.</desc><g stroke="none" stroke-width="1" fill="none" fill-rule="evenodd" sketch:type="MSPage"><g sketch:type="MSArtboardGroup" fill="#000000"><path d="M11.8678368,51.4460994 C12.9008803,51.4460994 13.7426194,50.6043603 13.7426194,49.5713168 C13.7426194,36.7434907 24.1704455,26.3052299 37.0052281,26.3052299 L82.7930542,26.3052299 L73.4121846,35.6791429 C72.6852281,36.4060994 72.6852281,37.5956647 73.4121846,38.3226212 C73.777402,38.6878386 74.2539237,38.8721864 74.737402,38.8721864 C75.2139237,38.8721864 75.6939237,38.6878386 76.0626194,38.3226212 L88.6295759,25.7626212 C89.363489,25.0287081 89.363489,23.8460994 88.6295759,23.1121864 L76.0626194,10.5452299 C75.3217498,9.81131683 74.1391411,9.82522987 73.4121846,10.5452299 C72.6852281,11.2791429 72.6852281,12.4617516 73.4121846,13.1956647 L82.7930542,22.5626212 L37.0052281,22.5626212 C22.1147933,22.5626212 10.0000107,34.680882 10.0000107,49.5747951 C9.99653244,50.600882 10.8417498,51.4460994 11.8678368,51.4460994 Z M87.3078368,47.7000125 C86.2747933,47.7000125 85.4330542,48.5347951 85.4330542,49.5678386 C85.4330542,62.3991429 74.9982716,72.840882 62.1600107,72.840882 L16.3860977,72.840882 L25.7669672,63.466969 C26.1321846,63.1017516 26.3095759,62.6252299 26.3095759,62.1417516 C26.3095759,61.6652299 26.1321846,61.1852299 25.7669672,60.8234907 C25.0330542,60.0895777 23.8504455,60.0895777 23.1165324,60.8234907 L10.5495759,73.3904473 L10.5356629,73.3974038 L10.5287063,73.4043603 L10.5287063,73.4113168 C10.0069672,73.9400125 9.85044548,74.7365342 10.1356629,75.4287081 C10.2365324,75.6652299 10.3860977,75.8774038 10.563489,76.0547951 L23.1165324,88.6078386 C23.4817498,88.9695777 23.9582716,89.1504473 24.4417498,89.1504473 C24.9252281,89.1504473 25.3982716,88.9660994 25.7669672,88.6078386 C26.4939237,87.8739255 26.4939237,86.6913168 25.7669672,85.9574038 L16.3860977,76.5834907 L62.1600107,76.5834907 C77.057402,76.5834907 89.1791411,64.4652299 89.1791411,49.5643603 C89.1756629,48.5382734 88.3339237,47.7000125 87.3078368,47.7000125 Z" sketch:type="MSShapeGroup"/></g></g></svg>